<?xml version="1.0" encoding="UTF-8"?>
<svg id="_レイヤー_2" data-name="レイヤー 2" xmlns="http://www.w3.org/2000/svg" viewBox="0 0 117.12 100.11">
  <defs>
    <style>
      .cls-1 {
        fill: #d5c8a0;
      }

      .cls-2 {
        fill: #192e7a;
      }

      .cls-3 {
        fill: #5a5757;
      }
    </style>
  </defs>
  <g id="_レイヤー_1-2" data-name="レイヤー 1">
    <g>
      <g>
        <path class="cls-3" d="M14.79,90.7h3.68l-1.11,6.29c-.38,2.12-2.57,3.12-6.89,3.12H5.84c-4.32,0-6.17-.99-5.8-3.12l1.11-6.29h3.71l-1.13,6.41c-.25,1.39,.14,1.88,2.85,1.88h3.53c2.45,0,3.29-.44,3.54-1.88l1.13-6.41Z"/>
        <path class="cls-3" d="M34.1,96.3l-.67,3.81h-3.43l.65-3.7c.1-.58-.84-.96-1.76-.96h-5.7l-.82,4.66h-3.43l.96-5.41h10.18c2.96,0,4.17,.82,4.04,1.6Z"/>
        <path class="cls-3" d="M41.43,98.55l.42-2.37c.13-.73,1.84-1.48,4.86-1.48h9.41l-.13,.75h-8.87c-.98,0-1.76,.31-1.83,.73l-.4,2.26c-.08,.46,.53,.77,1.57,.77h8.87l-.16,.9h-9.63c-2.84,0-4.23-.8-4.1-1.55Z"/>
        <path class="cls-3" d="M68.11,94.71h3.43l-.95,5.39h-8.72c-2.99,0-4.41-1.03-4.28-1.76l.64-3.63h3.44l-.64,3.63c-.1,.59,.84,.86,1.77,.86h4.52l.79-4.49Z"/>
        <path class="cls-3" d="M87.83,96.18l-.42,2.37c-.13,.74-1.88,1.55-4.42,1.55h-6.12c-2.57,0-4.01-.81-3.88-1.55l.42-2.37c.13-.72,1.79-1.45,4.73-1.48h5.48c2.91,.03,4.34,.76,4.21,1.48Zm-3.45,.12c.1-.56-.84-.85-1.58-.85h-4.12c-.69,0-1.75,.27-1.85,.85l-.38,2.14c-.04,.23-.13,.77,1.13,.77h5.01c1.28,0,1.38-.54,1.42-.77l.38-2.14Z"/>
        <path class="cls-3" d="M94.8,94.7h5.95l-.13,.75h-5.41c-.96,0-1.77,.36-1.85,.85l-.67,3.81h-3.43l.65-3.7c.12-.71,1.74-1.71,4.9-1.71Z"/>
        <path class="cls-3" d="M102.19,98.55l.42-2.37c.12-.71,1.35-1.48,4.36-1.48h6.3c3.01,0,3.96,.77,3.84,1.48l-.29,1.67h-10.1l.13-.76h6.67l.16-.92c.08-.45-.54-.73-1.6-.73h-3.98c-1.68,0-2.01,.46-2.06,.73l-.4,2.26c-.05,.29,.09,.77,1.57,.77h8.87l-.16,.9h-10.35c-2.52,0-3.52-.79-3.38-1.55Z"/>
      </g>
      <g>
        <polygon class="cls-2" points="49.6 62.85 58.41 71.05 67.52 62.69 49.6 46 49.6 62.85"/>
        <polygon class="cls-2" points="37.85 51.9 37.85 24.11 37.85 15.45 31.68 9.87 20.78 0 20.78 8.45 31.68 18.45 31.68 64.95 49.6 81.64 49.6 62.85 37.85 51.9"/>
        <g>
          <polygon class="cls-1" points="85.44 9.86 79.27 15.45 79.27 24.11 79.27 51.9 67.52 62.69 67.52 81.39 85.44 64.95 85.44 18.45 96.34 8.45 96.34 0 85.44 9.86"/>
          <g>
            <polygon class="cls-1" points="87.71 20.41 95.63 13.24 95.63 19.79 87.71 27.05 87.71 20.41"/>
            <polygon class="cls-1" points="87.71 32.06 95.63 24.89 95.63 31.43 87.71 38.7 87.71 32.06"/>
          </g>
        </g>
        <polygon class="cls-2" points="21.49 19.79 21.49 13.24 29.41 20.41 29.41 27.05 21.49 19.79"/>
        <polygon class="cls-2" points="21.49 31.43 21.49 24.89 29.41 32.06 29.41 38.7 21.49 31.43"/>
        <polygon class="cls-1" points="94.6 1.57 94.6 6.45 83.7 16.45 83.7 62.95 67.52 77.8 67.52 81.39 85.44 64.95 85.44 18.45 96.34 8.45 96.34 0 94.6 1.57"/>
      </g>
    </g>
  </g>
</svg>